{
    "asset" : {
        "generator" : "Khronos glTF Blender I/O v1.1.46",
        "version" : "2.0"
    },
    "scene" : 0,
    "scenes" : [
        {
            "name" : "Scene",
            "nodes" : [
                0
            ]
        }
    ],
    "nodes" : [
        {
            "mesh" : 0,
            "name" : "model_mesh",
            "rotation" : [
                0.7071068286895752,
                0,
                0,
                0.7071067094802856
            ],
            "scale" : [
                5.406810760498047,
                5.406810760498047,
                5.406810760498047
            ]
        }
    ],
    "materials" : [
        {
            "doubleSided" : true,
            "emissiveFactor" : [
                0,
                0,
                0
            ],
            "name" : "material_0",
            "pbrMetallicRoughness" : {
                "baseColorTexture" : {
                    "index" : 0,
                    "texCoord" : 0
                },
                "metallicFactor" : 0,
                "roughnessFactor" : 1
            }
        }
    ],
    "meshes" : [
        {
            "name" : "model_mesh",
            "primitives" : [
                {
                    "attributes" : {
                        "POSITION" : 0,
                        "NORMAL" : 1,
                        "TEXCOORD_0" : 2
                    },
                    "indices" : 3,
                    "material" : 0
                }
            ]
        }
    ],
    "textures" : [
        {
            "source" : 0
        }
    ],
    "images" : [
        {
            "bufferView" : 4,
            "mimeType" : "image/jpeg",
            "name" : "model_texture_7_rose"
        }
    ],
    "accessors" : [
        {
            "bufferView" : 0,
            "componentType" : 5126,
            "count" : 43100,
            "max" : [
                0.22907090187072754,
                0.15504539012908936,
                0.1759699136018753
            ],
            "min" : [
                -0.22834672033786774,
                -0.12792310118675232,
                -0.290984183549881
            ],
            "type" : "VEC3"
        },
        {
            "bufferView" : 1,
            "componentType" : 5126,
            "count" : 43100,
            "type" : "VEC3"
        },
        {
            "bufferView" : 2,
            "componentType" : 5126,
            "count" : 43100,
            "type" : "VEC2"
        },
        {
            "bufferView" : 3,
            "componentType" : 5123,
            "count" : 43122,
            "type" : "SCALAR"
        }
    ],
    "bufferViews" : [
        {
            "buffer" : 0,
            "byteLength" : 517200,
            "byteOffset" : 0
        },
        {
            "buffer" : 0,
            "byteLength" : 517200,
            "byteOffset" : 517200
        },
        {
            "buffer" : 0,
            "byteLength" : 344800,
            "byteOffset" : 1034400
        },
        {
            "buffer" : 0,
            "byteLength" : 86244,
            "byteOffset" : 1379200
        },
        {
            "buffer" : 0,
            "byteLength" : 498547,
            "byteOffset" : 1465444
        }
    ],
    "buffers" : [
        {
            "byteLength" : 1963992,
            "uri" : "data:application/octet-stream;base64,"
        }
    ]
}
